<svg width="67" height="67" viewBox="0 0 67 67" fill="none" xmlns="http://www.w3.org/2000/svg">
<circle cx="33" cy="33" r="23.5" stroke="white"/>
<g clip-path="url(#clip0_37_82)">
<path d="M15.515 27.4864L30.2477 51.4108L35.3743 48.2537L29.0603 38.0005L39.3136 31.6865L45.6276 41.9397L50.7542 38.7827L36.0215 14.8584L30.8949 18.0154L37.2089 28.2687L26.9556 34.5827L20.6416 24.3294L15.515 27.4864ZM20.9117 47.7322C21.1908 48.1855 21.6385 48.5092 22.1563 48.6324C22.6741 48.7555 23.2197 48.6679 23.6729 48.3888L25.3818 47.3364L16.9631 33.6654L15.2542 34.7177C14.801 34.9968 14.4772 35.4445 14.3541 35.9624C14.2309 36.4802 14.3186 37.0257 14.5977 37.479L16.7023 40.8967L14.9935 41.9491L17.0981 45.3668L18.807 44.3145L20.9117 47.7322ZM45.3575 18.5369C45.0784 18.0837 44.6307 17.7599 44.1129 17.6368C43.595 17.5137 43.0495 17.6013 42.5963 17.8804L40.8874 18.9327L49.3061 32.6038L51.015 31.5514C51.4682 31.2723 51.792 30.8246 51.9151 30.3068C52.0382 29.789 51.9506 29.2434 51.6715 28.7902L49.5668 25.3724L51.2757 24.3201L49.1711 20.9023L47.4622 21.9547L45.3575 18.5369Z" fill="white"/>
</g>
<defs>
<clipPath id="clip0_37_82">
<rect width="48.1658" height="48.1658" fill="white" transform="translate(0 25.256) rotate(-31.6249)"/>
</clipPath>
</defs>
</svg>
